<svg width="33" height="30" viewBox="0 0 33 30" fill="none" xmlns="http://www.w3.org/2000/svg">
<path d="M16.25 0C16.25 0 6.19775 8.6775 0.580125 13.377C0.401291 13.5327 0.257219 13.7243 0.157271 13.9393C0.0573244 14.1543 0.00373962 14.3879 0 14.625C0 15.056 0.171205 15.4693 0.475951 15.774C0.780698 16.0788 1.19402 16.25 1.625 16.25H4.875V27.625C4.875 28.056 5.04621 28.4693 5.35095 28.774C5.6557 29.0788 6.06902 29.25 6.5 29.25H11.375C11.806 29.25 12.2193 29.0788 12.524 28.774C12.8288 28.4693 13 28.056 13 27.625V21.125H19.5V27.625C19.5 28.056 19.6712 28.4693 19.976 28.774C20.2807 29.0788 20.694 29.25 21.125 29.25H26C26.431 29.25 26.8443 29.0788 27.149 28.774C27.4538 28.4693 27.625 28.056 27.625 27.625V16.25H30.875C31.306 16.25 31.7193 16.0788 32.024 15.774C32.3288 15.4693 32.5 15.056 32.5 14.625C32.4977 14.3834 32.4405 14.1455 32.3327 13.9292C32.2249 13.713 32.0692 13.5242 31.8776 13.377C26.299 8.6775 16.25 0 16.25 0Z" fill="url(#paint0_linear_205_39)"/>
<defs>
<linearGradient id="paint0_linear_205_39" x1="-0.25" y1="29.125" x2="32.75" y2="29.125" gradientUnits="userSpaceOnUse">
<stop stop-color="#CC2985"/>
<stop offset="0.5" stop-color="#DF6256"/>
<stop offset="1" stop-color="#EDB553"/>
</linearGradient>
</defs>
</svg>
