<svg width="16" height="12" viewBox="0 0 16 12" fill="none" xmlns="http://www.w3.org/2000/svg">
<path d="M15.93 10.495L12.52 4.74C12.4321 4.59008 12.3063 4.4659 12.1552 4.3799C12.0042 4.29391 11.8332 4.24911 11.6594 4.25C11.4857 4.24909 11.3147 4.29389 11.1638 4.37989C11.0128 4.4659 10.8872 4.59009 10.7994 4.74L9.82188 6.38938C9.79912 6.4279 9.78711 6.47182 9.78711 6.51656C9.78711 6.56131 9.79912 6.60523 9.82188 6.64375L11.4969 9.48563C11.5605 9.59117 11.5836 9.71623 11.5619 9.83753C11.5401 9.95884 11.4751 10.0681 11.3788 10.145C11.3226 10.1886 11.2579 10.2197 11.1888 10.2363C11.1197 10.2528 11.0479 10.2545 10.9781 10.2411C10.9083 10.2278 10.8421 10.1997 10.7841 10.1588C10.726 10.1178 10.6773 10.065 10.6413 10.0038L6.36188 2.7425C6.27357 2.59241 6.1476 2.46799 5.99643 2.38154C5.84527 2.2951 5.67414 2.24962 5.50001 2.24962C5.32587 2.24962 5.15475 2.2951 5.00358 2.38154C4.85241 2.46799 4.72644 2.59241 4.63813 2.7425L0.0693813 10.4963C0.0142558 10.5889 -0.00944239 10.6969 0.00182088 10.8041C0.0130842 10.9114 0.0587054 11.0121 0.131881 11.0913C0.181155 11.1428 0.240602 11.1835 0.306449 11.2108C0.372296 11.2381 0.443104 11.2515 0.514381 11.25H15.4856C15.5566 11.2509 15.627 11.2372 15.6925 11.2098C15.7579 11.1824 15.8171 11.1418 15.8663 11.0906C15.9398 11.0115 15.9857 10.9108 15.9972 10.8034C16.0087 10.6961 15.9851 10.5879 15.93 10.495ZM4.02688 5.75L5.50001 3.25L6.97313 5.75H4.02688ZM8.75001 1.5C8.75001 1.20333 8.83798 0.913319 9.0028 0.666645C9.16762 0.419972 9.40189 0.227713 9.67598 0.114181C9.95007 0.000649929 10.2517 -0.0290551 10.5426 0.0288228C10.8336 0.0867006 11.1009 0.229562 11.3107 0.439341C11.5204 0.649119 11.6633 0.916394 11.7212 1.20737C11.7791 1.49834 11.7494 1.79994 11.6358 2.07403C11.5223 2.34812 11.33 2.58238 11.0834 2.74721C10.8367 2.91203 10.5467 3 10.25 3C9.85218 3 9.47065 2.84197 9.18935 2.56066C8.90804 2.27936 8.75001 1.89783 8.75001 1.5Z" fill="white"/>
</svg>
