<svg width="33" height="30" viewBox="0 0 33 30" fill="none" xmlns="http://www.w3.org/2000/svg">
<path d="M26 13C26 11.4416 24.895 10.1384 23.4309 9.82475C24.0159 8.84812 24.375 7.71875 24.375 6.5C24.375 2.91525 21.4597 0 17.875 0C15.4115 0 13.2893 1.39263 12.1875 3.419C11.0857 1.39263 8.9635 0 6.5 0C2.91525 0 0 2.91525 0 6.5C0 7.96575 0.507 9.30475 1.32762 10.3935C0.918022 10.694 0.584558 11.0863 0.353995 11.5389C0.123432 11.9916 0.00219039 12.492 0 13V26C0 27.7924 1.45762 29.25 3.25 29.25H22.75C24.5424 29.25 26 27.7924 26 26V21.7149L32.5 24.9649V13.5899L26 16.8399V13ZM17.875 3.25C19.6674 3.25 21.125 4.70762 21.125 6.5C21.125 8.29237 19.6674 9.75 17.875 9.75C16.0826 9.75 14.625 8.29237 14.625 6.5C14.625 4.70762 16.0826 3.25 17.875 3.25ZM6.5 3.25C8.29237 3.25 9.75 4.70762 9.75 6.5C9.75 8.29237 8.29237 9.75 6.5 9.75C4.70762 9.75 3.25 8.29237 3.25 6.5C3.25 4.70762 4.70762 3.25 6.5 3.25Z" fill="white"/>
</svg>
