<svg width="24" height="24" viewBox="0 0 24 24" fill="none" xmlns="http://www.w3.org/2000/svg">
<path d="M12 2.25C6.615 2.25 2.25 6.615 2.25 12C2.25 17.385 6.615 21.75 12 21.75C17.385 21.75 21.75 17.385 21.75 12C21.75 6.615 17.385 2.25 12 2.25ZM13.33 8.383C13.4264 8.36246 13.5259 8.36112 13.6228 8.37906C13.7197 8.397 13.8121 8.43386 13.8948 8.48754C13.9775 8.54122 14.0487 8.61066 14.1045 8.6919C14.1603 8.77314 14.1996 8.86459 14.22 8.961L14.323 9.45C14.3452 9.54698 14.348 9.64741 14.331 9.74545C14.3141 9.84348 14.2778 9.93717 14.2242 10.021C14.1707 10.1049 14.1011 10.1773 14.0193 10.234C13.9375 10.2907 13.8453 10.3305 13.748 10.3512C13.6507 10.3719 13.5502 10.3731 13.4525 10.3546C13.3547 10.336 13.2616 10.2983 13.1786 10.2434C13.0956 10.1886 13.0243 10.1178 12.9689 10.0351C12.9135 9.95248 12.8751 9.85963 12.856 9.762L12.752 9.272C12.7108 9.07747 12.7486 8.87454 12.857 8.70784C12.9653 8.54113 13.1355 8.42429 13.33 8.383ZM8.439 9.423C8.53539 9.40246 8.63489 9.40112 8.7318 9.41906C8.82871 9.437 8.92114 9.47386 9.0038 9.52754C9.08645 9.58122 9.15772 9.65066 9.21352 9.7319C9.26932 9.81314 9.30856 9.90459 9.329 10.001L9.432 10.49C9.45497 10.5873 9.45827 10.6881 9.4417 10.7867C9.42513 10.8853 9.38903 10.9795 9.33552 11.0639C9.28201 11.1483 9.21217 11.2212 9.1301 11.2782C9.04803 11.3353 8.95539 11.3753 8.85762 11.3961C8.75985 11.4168 8.65892 11.4178 8.56077 11.3989C8.46262 11.3801 8.36922 11.3419 8.28606 11.2864C8.2029 11.231 8.13166 11.1595 8.07653 11.0761C8.02139 10.9928 7.98347 10.8992 7.965 10.801L7.861 10.312C7.84046 10.2156 7.83912 10.1161 7.85706 10.0192C7.87499 9.92229 7.91186 9.82986 7.96554 9.7472C8.01922 9.66455 8.08866 9.59328 8.1699 9.53748C8.25114 9.48168 8.34258 9.44244 8.439 9.422M16.766 12.977C16.9042 13.1199 16.9801 13.3118 16.9769 13.5105C16.9737 13.7093 16.8917 13.8986 16.749 14.037C16.5775 14.2036 16.3987 14.3624 16.213 14.513L16.431 14.958C16.6839 15.4923 16.7163 16.1047 16.5213 16.6627C16.3263 17.2208 15.9195 17.6796 15.3888 17.9402C14.8582 18.2007 14.2464 18.2419 13.6856 18.0549C13.1248 17.868 12.6601 17.4678 12.392 16.941L12.119 16.384C10.8605 16.6291 9.56394 16.5994 8.318 16.297C8.12759 16.2464 7.96474 16.1229 7.86464 15.9532C7.76453 15.7835 7.73522 15.5813 7.78304 15.3901C7.83085 15.199 7.95195 15.0344 8.12017 14.9318C8.28838 14.8292 8.4902 14.797 8.682 14.842C9.812 15.125 11.111 15.129 12.428 14.776C13.745 14.423 14.868 13.771 15.706 12.96C15.8489 12.8218 16.0408 12.7459 16.2395 12.7491C16.4383 12.7523 16.6276 12.8343 16.766 12.977Z" fill="white"/>
<path d="M13.592 15.9821C14.0726 15.8087 14.528 15.6021 14.958 15.3621L15.085 15.6201C15.1645 15.7975 15.172 15.9989 15.1059 16.1817C15.0398 16.3646 14.9053 16.5146 14.7308 16.6002C14.5562 16.6858 14.3552 16.7003 14.1702 16.6405C13.9852 16.5808 13.8306 16.4516 13.739 16.2801L13.592 15.9821Z" fill="white"/>
</svg>
