<svg width="14" height="14" viewBox="0 0 14 14" fill="none" xmlns="http://www.w3.org/2000/svg">
<path fill-rule="evenodd" clip-rule="evenodd" d="M0.29756 1.02883C1.62313 0.335793 3.09997 -0.0174852 4.59567 0.000665705C6.09137 0.0188166 7.55919 0.40783 8.86756 1.13283C8.94654 1.17651 9.01223 1.24076 9.05766 1.31875C9.10308 1.39675 9.12654 1.48558 9.12556 1.57583L9.12356 1.77983C9.1213 1.85383 9.10335 1.92651 9.07091 1.99306C9.03847 2.05961 8.99226 2.11851 8.93536 2.16587C8.87845 2.21323 8.81214 2.24797 8.7408 2.26779C8.66947 2.2876 8.59474 2.29205 8.52156 2.28083C7.20101 2.09602 5.85714 2.16938 4.56456 2.49683C4.25818 2.57465 3.9786 2.73401 3.75551 2.95798C3.53243 3.18194 3.37417 3.46215 3.29756 3.76883L2.66656 6.28883V6.29083C2.52884 6.83826 2.45336 7.39948 2.44156 7.96383C2.43156 8.40783 1.92456 8.68283 1.62556 8.35383C0.560173 7.18201 -0.0206224 5.64943 0.000559648 4.06583L0.0305596 1.46583C0.0313549 1.37552 0.0565991 1.2871 0.10361 1.20998C0.150622 1.13286 0.217645 1.06992 0.29756 1.02783M9.29156 3.70183C7.84043 3.33807 6.3217 3.34013 4.87156 3.70783C4.78426 3.73019 4.70462 3.77573 4.64108 3.83963C4.57753 3.90352 4.53243 3.98341 4.51056 4.07083L3.88056 6.59283H3.87956C3.59603 7.71753 3.63107 8.89895 3.98075 10.0049C4.33044 11.1108 4.98097 12.0976 5.85956 12.8548C6.15145 13.1112 6.49989 13.2947 6.87637 13.3905C7.25285 13.4863 7.64666 13.4915 8.02556 13.4058H8.02756C9.1573 13.1459 10.1927 12.5773 11.0183 11.7636C11.8439 10.9498 12.4273 9.92271 12.7036 8.79683L13.3336 6.28383C13.3553 6.1964 13.3531 6.10471 13.327 6.01846C13.301 5.93221 13.2521 5.85459 13.1856 5.79383C12.0807 4.78501 10.7427 4.06618 9.29156 3.70183ZM6.64656 7.80883C6.69211 7.82275 6.73249 7.8499 6.76256 7.88683C6.80695 7.9581 6.86525 8.01969 6.93396 8.06792C7.00268 8.11616 7.08041 8.15006 7.16252 8.16759C7.24463 8.18513 7.32943 8.18594 7.41185 8.16998C7.49428 8.15402 7.57265 8.12162 7.64228 8.07471C7.71191 8.0278 7.77137 7.96734 7.81712 7.89694C7.86287 7.82654 7.89396 7.74764 7.90855 7.66496C7.92314 7.58228 7.92091 7.49751 7.90202 7.4157C7.88312 7.3339 7.84793 7.25674 7.79856 7.18883C7.62182 6.93525 7.37105 6.74246 7.08056 6.63683C6.83552 6.54551 6.57182 6.51563 6.31256 6.54983C6.14933 6.57602 6.00312 6.66582 5.90595 6.79956C5.80878 6.93331 5.76855 7.1001 5.79407 7.26344C5.8196 7.42678 5.9088 7.57335 6.04214 7.67107C6.17549 7.76878 6.34212 7.80969 6.50556 7.78483H6.51756L6.55256 7.78683C6.58189 7.7895 6.61323 7.79683 6.64656 7.80883ZM9.78756 8.61883C9.71244 8.60952 9.63619 8.61739 9.56456 8.64183C9.41384 8.70593 9.24397 8.70831 9.09152 8.64844C8.93906 8.58858 8.8162 8.47126 8.74936 8.32173C8.68253 8.1722 8.67706 8.00241 8.73414 7.84889C8.79121 7.69536 8.90627 7.57038 9.05456 7.50083C9.33856 7.37383 9.64056 7.35283 9.88556 7.37283C10.1316 7.39183 10.3796 7.45583 10.5786 7.55483C10.7268 7.62909 10.8395 7.75921 10.8918 7.91655C10.9441 8.07389 10.9318 8.24558 10.8576 8.39383C10.7833 8.54209 10.6532 8.65477 10.4958 8.7071C10.3385 8.75942 10.1668 8.74709 10.0186 8.67283C9.94551 8.64193 9.86673 8.62367 9.78756 8.61883Z" fill="white"/>
</svg>
