<svg width="38" height="38" viewBox="0 0 38 38" fill="none" xmlns="http://www.w3.org/2000/svg">
<path fill-rule="evenodd" clip-rule="evenodd" d="M33.306 12.7L37.418 13.372C37.5802 13.3997 37.7274 13.4837 37.8338 13.6091C37.9402 13.7346 37.9991 13.8935 38 14.058V17.884C37.9988 18.0473 37.9406 18.2051 37.8355 18.33C37.7303 18.4549 37.5847 18.5391 37.424 18.568L33.308 19.292C33.0699 20.1158 32.7413 20.9107 32.328 21.662L34.762 25.042C34.8582 25.1764 34.9037 25.3404 34.8905 25.5052C34.8773 25.6699 34.8063 25.8246 34.69 25.942L31.984 28.646C31.8682 28.761 31.7159 28.8319 31.5534 28.8465C31.3909 28.8611 31.2284 28.8185 31.094 28.726L27.68 26.33C26.9253 26.75 26.13 27.0833 25.294 27.33L24.568 31.426C24.5386 31.5867 24.4539 31.732 24.3286 31.8369C24.2034 31.9417 24.0454 31.9994 23.882 32H20.056C19.8918 31.9991 19.7331 31.9406 19.6077 31.8346C19.4823 31.7285 19.3982 31.5818 19.37 31.42L18.69 27.342C17.8586 27.0994 17.0559 26.7674 16.296 26.352L12.908 28.724C12.7739 28.8175 12.6112 28.8611 12.4483 28.8472C12.2853 28.8334 12.1324 28.7629 12.016 28.648L9.31 25.94C9.19473 25.8229 9.12435 25.6689 9.11118 25.5051C9.09802 25.3413 9.14291 25.178 9.238 25.044L11.632 21.696C11.2122 20.932 10.8769 20.1246 10.632 19.288L6.574 18.568C6.41365 18.5387 6.26856 18.4543 6.16378 18.3294C6.05899 18.2045 6.00106 18.047 6 17.884V14.058C6 13.718 6.246 13.428 6.58 13.372L10.64 12.696C10.884 11.856 11.2173 11.054 11.64 10.29L9.272 6.906C9.17927 6.7718 9.13631 6.60944 9.15055 6.44694C9.16479 6.28444 9.23534 6.13202 9.35 6.016L12.054 3.312C12.294 3.072 12.674 3.04 12.95 3.238L16.31 5.638C17.0696 5.22547 17.8716 4.89622 18.702 4.656L19.368 0.584C19.3954 0.421141 19.4794 0.273201 19.6053 0.166332C19.7312 0.0594633 19.8909 0.000547873 20.056 0H23.882C24.222 0 24.51 0.244 24.568 0.576L25.286 4.67C26.118 4.91267 26.9133 5.244 27.672 5.664L31.042 3.242C31.1764 3.14584 31.3404 3.10033 31.5052 3.11351C31.6699 3.12668 31.8246 3.1977 31.942 3.314L34.646 6.018C34.886 6.258 34.918 6.634 34.724 6.91L32.324 10.33C32.7373 11.0833 33.066 11.8733 33.306 12.7ZM17.13 16C17.13 16.6395 17.256 17.2728 17.5007 17.8637C17.7454 18.4545 18.1042 18.9914 18.5564 19.4436C19.0086 19.8958 19.5455 20.2546 20.1363 20.4993C20.7272 20.744 21.3605 20.87 22 20.87C22.6395 20.87 23.2728 20.744 23.8637 20.4993C24.4545 20.2546 24.9914 19.8958 25.4436 19.4436C25.8958 18.9914 26.2546 18.4545 26.4993 17.8637C26.744 17.2728 26.87 16.6395 26.87 16C26.87 14.7084 26.3569 13.4697 25.4436 12.5564C24.5303 11.6431 23.2916 11.13 22 11.13C20.7084 11.13 19.4697 11.6431 18.5564 12.5564C17.6431 13.4697 17.13 14.7084 17.13 16Z" fill="white"/>
</svg>
