<svg width="24" height="24" viewBox="0 0 24 24" fill="none" xmlns="http://www.w3.org/2000/svg">
<path fill-rule="evenodd" clip-rule="evenodd" d="M12.593 23.2582L12.582 23.2602L12.511 23.2952L12.491 23.2992L12.477 23.2952L12.406 23.2602C12.3953 23.2568 12.3873 23.2585 12.382 23.2652L12.378 23.2752L12.361 23.7032L12.366 23.7232L12.376 23.7362L12.48 23.8102L12.495 23.8142L12.507 23.8102L12.611 23.7362L12.623 23.7202L12.627 23.7032L12.61 23.2762C12.6073 23.2655 12.6017 23.2595 12.593 23.2582ZM12.858 23.1452L12.845 23.1472L12.66 23.2402L12.65 23.2502L12.647 23.2612L12.665 23.6912L12.67 23.7032L12.678 23.7102L12.879 23.8032C12.8917 23.8065 12.9013 23.8038 12.908 23.7952L12.912 23.7812L12.878 23.1672C12.8747 23.1552 12.868 23.1478 12.858 23.1452ZM12.143 23.1472C12.1386 23.1445 12.1333 23.1436 12.1283 23.1448C12.1233 23.1459 12.1188 23.1489 12.116 23.1532L12.11 23.1672L12.076 23.7812C12.0767 23.7932 12.0823 23.8012 12.093 23.8052L12.108 23.8032L12.309 23.7102L12.319 23.7022L12.323 23.6912L12.34 23.2612L12.337 23.2492L12.327 23.2392L12.143 23.1472Z" fill="white"/>
<path fill-rule="evenodd" clip-rule="evenodd" d="M12 14.1221L17.303 19.4251C17.5844 19.7065 17.966 19.8646 18.364 19.8646C18.762 19.8646 19.1436 19.7065 19.425 19.4251C19.7064 19.1437 19.8645 18.7621 19.8645 18.3641C19.8645 17.9662 19.7064 17.5845 19.425 17.3031L14.12 12.0001L19.424 6.69711C19.5633 6.55778 19.6737 6.39238 19.7491 6.21036C19.8244 6.02834 19.8632 5.83326 19.8631 5.63626C19.8631 5.43926 19.8242 5.2442 19.7488 5.06221C19.6734 4.88022 19.5628 4.71488 19.4235 4.57561C19.2842 4.43634 19.1188 4.32588 18.9367 4.25054C18.7547 4.17519 18.5596 4.13644 18.3626 4.13648C18.1656 4.13653 17.9706 4.17538 17.7886 4.25081C17.6066 4.32624 17.4413 4.43678 17.302 4.57611L12 9.87911L6.697 4.57611C6.5587 4.43278 6.39323 4.31843 6.21027 4.23973C6.0273 4.16103 5.83049 4.11956 5.63132 4.11774C5.43215 4.11591 5.23462 4.15377 5.05024 4.22911C4.86586 4.30444 4.69833 4.41574 4.55742 4.55652C4.41652 4.69729 4.30506 4.86471 4.22955 5.04902C4.15404 5.23333 4.116 5.43083 4.11763 5.63C4.11927 5.82917 4.16056 6.02602 4.23908 6.20906C4.31761 6.3921 4.4318 6.55767 4.575 6.69611L9.88 12.0001L4.576 17.3041C4.4328 17.4425 4.31861 17.6081 4.24008 17.7912C4.16156 17.9742 4.12027 18.1711 4.11863 18.3702C4.117 18.5694 4.15504 18.7669 4.23055 18.9512C4.30606 19.1355 4.41752 19.3029 4.55842 19.4437C4.69933 19.5845 4.86686 19.6958 5.05124 19.7711C5.23562 19.8464 5.43315 19.8843 5.63232 19.8825C5.83149 19.8807 6.0283 19.8392 6.21127 19.7605C6.39423 19.6818 6.5597 19.5674 6.698 19.4241L12 14.1221Z" fill="white"/>
</svg>
