<svg width="24" height="24" viewBox="0 0 24 24" fill="none" xmlns="http://www.w3.org/2000/svg">
<path d="M22.267 10.289C22.267 16.499 14.933 23 12 23C9.06697 23 1.73297 16.498 1.73297 10.289C1.73297 4.08 5.78997 1 12 1C18.21 1 22.267 4.08 22.267 10.289Z" fill="white"/>
<path d="M12 5.644C17.288 5.644 21.003 7.886 21.994 12.382C22.1667 11.6975 22.2584 10.995 22.267 10.289C22.267 4.08 18.21 1 12 1C5.78997 1 1.73297 4.08 1.73297 10.289C1.74097 10.995 1.83297 11.698 2.00597 12.382C2.99597 7.886 6.71197 5.644 12 5.644Z" fill="white"/>
<path d="M9.97197 14.5239C3.61597 14.5239 4.19197 8.74292 4.19197 8.74292C11.128 8.74292 9.97197 14.5229 9.97197 14.5229M14.028 14.5239C20.383 14.5239 19.808 8.74292 19.808 8.74292C12.872 8.74292 14.028 14.5229 14.028 14.5229" fill="black"/>
</svg>
