<svg width="45" height="45" viewBox="0 0 45 45" fill="none" xmlns="http://www.w3.org/2000/svg">
<path d="M12.2475 8.90625C11.3887 8.90625 10.6462 8.90625 10.0631 8.9625C9.48747 9.015 8.77872 9.14062 8.20122 9.615C7.83611 9.91687 7.54199 10.2955 7.33978 10.7239C7.13756 11.1523 7.03221 11.62 7.03122 12.0937C7.02747 12.825 7.35372 13.455 7.66872 13.9537C7.98372 14.46 8.43935 15.06 8.97185 15.7613L13.8393 22.1775C14.3118 22.8 14.43 22.965 14.5125 23.1338C14.5975 23.3088 14.6593 23.4944 14.6981 23.6906C14.7356 23.8781 14.7412 24.0881 14.7412 24.8794V30.4481C14.7412 30.8944 14.7393 31.3744 14.8725 31.8319C14.9887 32.2294 15.1818 32.6006 15.4406 32.9288C15.7406 33.3038 16.1343 33.5775 16.4943 33.8231L16.5843 33.885L18.4406 35.1656C18.7518 35.3812 19.0612 35.5969 19.3312 35.7469C19.6012 35.8969 20.0587 36.1256 20.625 36.09C21.3056 36.0487 21.9187 35.7 22.3125 35.1619C22.635 34.7194 22.7062 34.2262 22.7325 33.9188C22.7587 33.6075 22.7587 33.225 22.7587 32.835V24.8794C22.7587 24.0881 22.7662 23.8781 22.8018 23.6906C22.8393 23.4944 22.9018 23.3088 22.9893 23.1338C23.07 22.965 23.1881 22.8 23.6606 22.1775L28.5281 15.7613C29.0606 15.06 29.5162 14.46 29.8331 13.9537C30.1462 13.455 30.4706 12.825 30.4687 12.0937C30.4677 11.62 30.3624 11.1523 30.1602 10.7239C29.958 10.2955 29.6638 9.91687 29.2987 9.615C28.7212 9.14062 28.0125 9.015 27.4368 8.96062C26.8537 8.90625 26.1112 8.90625 25.2525 8.90625H12.2475ZM9.8456 12.0731C9.85167 11.9797 9.88936 11.8911 9.95247 11.8219C9.99747 11.8087 10.1081 11.7825 10.3275 11.7619C10.7625 11.7206 11.37 11.7188 12.315 11.7188H25.185C26.13 11.7188 26.7375 11.7187 27.1725 11.7619C27.3918 11.7806 27.5025 11.8087 27.5475 11.8219C27.6037 11.8837 27.6468 11.9719 27.6543 12.0731C27.601 12.2101 27.5318 12.3404 27.4481 12.4612C27.2081 12.8456 26.8293 13.3463 26.2481 14.1131L25.575 15H11.925L11.25 14.1131C10.6687 13.3444 10.29 12.8456 10.05 12.4612C9.96624 12.3404 9.89889 12.2101 9.8456 12.0731ZM30.9375 18.2812C30.5645 18.2812 30.2068 18.4294 29.9431 18.6931C29.6794 18.9569 29.5312 19.3145 29.5312 19.6875C29.5312 20.0605 29.6794 20.4181 29.9431 20.6819C30.2068 20.9456 30.5645 21.0938 30.9375 21.0938H36.5625C36.9354 21.0938 37.2931 20.9456 37.5568 20.6819C37.8206 20.4181 37.9687 20.0605 37.9687 19.6875C37.9687 19.3145 37.8206 18.9569 37.5568 18.6931C37.2931 18.4294 36.9354 18.2812 36.5625 18.2812H30.9375ZM28.125 22.9688C27.752 22.9688 27.3943 23.1169 27.1306 23.3806C26.8669 23.6444 26.7187 24.002 26.7187 24.375C26.7187 24.748 26.8669 25.1056 27.1306 25.3694C27.3943 25.6331 27.752 25.7812 28.125 25.7812H36.5625C36.9354 25.7812 37.2931 25.6331 37.5568 25.3694C37.8206 25.1056 37.9687 24.748 37.9687 24.375C37.9687 24.002 37.8206 23.6444 37.5568 23.3806C37.2931 23.1169 36.9354 22.9688 36.5625 22.9688H28.125ZM27.1875 27.6562C26.8145 27.6562 26.4568 27.8044 26.1931 28.0681C25.9294 28.3319 25.7812 28.6895 25.7812 29.0625C25.7812 29.4355 25.9294 29.7931 26.1931 30.0569C26.4568 30.3206 26.8145 30.4688 27.1875 30.4688H36.5625C36.9354 30.4688 37.2931 30.3206 37.5568 30.0569C37.8206 29.7931 37.9687 29.4355 37.9687 29.0625C37.9687 28.6895 37.8206 28.3319 37.5568 28.0681C37.2931 27.8044 36.9354 27.6562 36.5625 27.6562H27.1875ZM27.1875 32.3438C26.8145 32.3438 26.4568 32.4919 26.1931 32.7556C25.9294 33.0194 25.7812 33.377 25.7812 33.75C25.7812 34.123 25.9294 34.4806 26.1931 34.7444C26.4568 35.0081 26.8145 35.1562 27.1875 35.1562H31.875C32.2479 35.1562 32.6056 35.0081 32.8693 34.7444C33.1331 34.4806 33.2812 34.123 33.2812 33.75C33.2812 33.377 33.1331 33.0194 32.8693 32.7556C32.6056 32.4919 32.2479 32.3438 31.875 32.3438H27.1875Z" fill="white"/>
</svg>
