<svg width="36" height="37" viewBox="0 0 36 37" fill="none" xmlns="http://www.w3.org/2000/svg">
<path fill-rule="evenodd" clip-rule="evenodd" d="M17.9166 2.01435e-10C20.2695 -1.12853e-05 22.5993 0.474185 24.7731 1.39551C26.9468 2.31684 28.9219 3.66726 30.5857 5.36967C32.2494 7.07208 33.5691 9.09313 34.4695 11.3174C35.3699 13.5417 35.8334 15.9257 35.8334 18.3333C35.8334 28.4585 27.8118 36.6667 17.9166 36.6667C8.0216 36.6667 0 28.4585 0 18.3333C0 8.20815 8.0216 2.01435e-10 17.9166 2.01435e-10ZM19.7084 20.1667H16.125C11.6894 20.1667 7.88126 22.9156 6.23878 26.8396C8.83759 30.5685 13.0996 33 17.9166 33C22.7336 33 26.9957 30.5685 29.5946 26.8393C27.9521 22.9156 24.144 20.1667 19.7084 20.1667ZM17.9166 5.5C14.9481 5.5 12.5416 7.96245 12.5416 11C12.5416 14.0375 14.9481 16.5 17.9166 16.5C20.8852 16.5 23.2916 14.0375 23.2916 11C23.2916 7.96245 20.8852 5.5 17.9166 5.5Z" fill="url(#paint0_linear_293_372)"/>
<defs>
<linearGradient id="paint0_linear_293_372" x1="-0.073165" y1="18.7823" x2="35.9064" y2="18.7823" gradientUnits="userSpaceOnUse">
<stop stop-color="#CC2985"/>
<stop offset="0.5" stop-color="#DD6F6C"/>
<stop offset="1" stop-color="#EDB553"/>
</linearGradient>
</defs>
</svg>
