<svg width="20" height="14" viewBox="0 0 20 14" fill="none" xmlns="http://www.w3.org/2000/svg">
<path d="M2.50354 7C1.95154 7 1.49254 6.55 1.56804 6.0025C2.03504 2.609 4.84854 0 8.25004 0C10.7485 0 12.93 1.4075 14.097 3.5H19.5C19.6326 3.5 19.7598 3.55268 19.8536 3.64645C19.9474 3.74021 20 3.86739 20 4C20 4.13261 19.9474 4.25979 19.8536 4.35355C19.7598 4.44732 19.6326 4.5 19.5 4.5H14.557C14.733 4.978 14.8605 5.481 14.932 6.0025C15.007 6.55 14.5485 7 13.996 7H2.50354Z" fill="white"/>
<path fill-rule="evenodd" clip-rule="evenodd" d="M0.0830572 9.9745C-0.260943 9.003 0.506557 8 1.59356 8H18.4066C19.4936 8 20.2611 9.003 19.9171 9.9745L19.2186 11.9485C18.7851 13.1735 17.5681 14 16.1971 14H3.80306C2.43206 14 1.21506 13.1735 0.781557 11.9485L0.0830572 9.9745ZM6.00006 11C6.00006 11.3315 5.86836 11.6495 5.63394 11.8839C5.39952 12.1183 5.08158 12.25 4.75006 12.25C4.41854 12.25 4.10059 12.1183 3.86617 11.8839C3.63175 11.6495 3.50006 11.3315 3.50006 11C3.50006 10.6685 3.63175 10.3505 3.86617 10.1161C4.10059 9.8817 4.41854 9.75 4.75006 9.75C5.08158 9.75 5.39952 9.8817 5.63394 10.1161C5.86836 10.3505 6.00006 10.6685 6.00006 11ZM10.0001 12.25C10.3316 12.25 10.6495 12.1183 10.8839 11.8839C11.1184 11.6495 11.2501 11.3315 11.2501 11C11.2501 10.6685 11.1184 10.3505 10.8839 10.1161C10.6495 9.8817 10.3316 9.75 10.0001 9.75C9.66854 9.75 9.35059 9.8817 9.11617 10.1161C8.88175 10.3505 8.75006 10.6685 8.75006 11C8.75006 11.3315 8.88175 11.6495 9.11617 11.8839C9.35059 12.1183 9.66854 12.25 10.0001 12.25ZM16.5001 11C16.5001 11.3315 16.3684 11.6495 16.1339 11.8839C15.8995 12.1183 15.5816 12.25 15.2501 12.25C14.9185 12.25 14.6006 12.1183 14.3662 11.8839C14.1318 11.6495 14.0001 11.3315 14.0001 11C14.0001 10.6685 14.1318 10.3505 14.3662 10.1161C14.6006 9.8817 14.9185 9.75 15.2501 9.75C15.5816 9.75 15.8995 9.8817 16.1339 10.1161C16.3684 10.3505 16.5001 10.6685 16.5001 11Z" fill="white"/>
</svg>
