<svg width="24" height="24" viewBox="0 0 24 24" fill="none" xmlns="http://www.w3.org/2000/svg">
<path d="M12.593 23.2579L12.582 23.2599L12.511 23.2949L12.491 23.2989L12.477 23.2949L12.406 23.2599C12.3953 23.2566 12.3873 23.2583 12.382 23.2649L12.378 23.2749L12.361 23.7029L12.366 23.7229L12.376 23.7359L12.48 23.8099L12.495 23.8139L12.507 23.8099L12.611 23.7359L12.623 23.7199L12.627 23.7029L12.61 23.2759C12.6073 23.2653 12.6017 23.2593 12.593 23.2579ZM12.858 23.1449L12.845 23.1469L12.66 23.2399L12.65 23.2499L12.647 23.2609L12.665 23.6909L12.67 23.7029L12.678 23.7099L12.879 23.8029C12.8917 23.8063 12.9013 23.8036 12.908 23.7949L12.912 23.7809L12.878 23.1669C12.8747 23.1549 12.868 23.1476 12.858 23.1449ZM12.143 23.1469C12.1386 23.1443 12.1333 23.1434 12.1283 23.1445C12.1233 23.1456 12.1189 23.1487 12.116 23.1529L12.11 23.1669L12.076 23.7809C12.0767 23.7929 12.0823 23.8009 12.093 23.8049L12.108 23.8029L12.309 23.7099L12.319 23.7019L12.323 23.6909L12.34 23.2609L12.337 23.2489L12.327 23.2389L12.143 23.1469Z" fill="white"/>
<path d="M12 2C17.523 2 22 6.477 22 12C22 17.523 17.523 22 12 22C6.477 22 2 17.523 2 12C2 6.477 6.477 2 12 2ZM12 6C11.7348 6 11.4804 6.10536 11.2929 6.29289C11.1054 6.48043 11 6.73478 11 7V12C11.0001 12.2652 11.1055 12.5195 11.293 12.707L14.293 15.707C14.4816 15.8892 14.7342 15.99 14.9964 15.9877C15.2586 15.9854 15.5094 15.8802 15.6948 15.6948C15.8802 15.5094 15.9854 15.2586 15.9877 14.9964C15.99 14.7342 15.8892 14.4816 15.707 14.293L13 11.586V7C13 6.73478 12.8946 6.48043 12.7071 6.29289C12.5196 6.10536 12.2652 6 12 6Z" fill="white"/>
</svg>
