<svg width="19" height="19" viewBox="0 0 19 19" fill="none" xmlns="http://www.w3.org/2000/svg">
<path d="M3.95831 2.37513L3.95831 16.6251C3.95876 16.7694 3.99855 16.9108 4.0734 17.0342C4.14825 17.1575 4.25532 17.2581 4.38308 17.3251C4.51085 17.3921 4.65447 17.423 4.79849 17.4145C4.94251 17.406 5.08148 17.3583 5.20044 17.2767L15.4921 10.1517C15.9188 9.85638 15.9188 9.14546 15.4921 8.84938L5.20044 1.72438C5.08173 1.64191 4.94269 1.59354 4.79843 1.58454C4.65417 1.57554 4.5102 1.60625 4.38216 1.67333C4.25413 1.74041 4.14692 1.84129 4.0722 1.96502C3.99747 2.08875 3.95808 2.23059 3.95831 2.37513Z" fill="url(#paint0_linear_202_404)"/>
<defs>
<linearGradient id="paint0_linear_202_404" x1="4.00012" y1="9.00012" x2="16.0001" y2="9.00012" gradientUnits="userSpaceOnUse">
<stop stop-color="#CC2985"/>
<stop offset="0.5" stop-color="#DD6F6C"/>
<stop offset="1" stop-color="#EDB553"/>
</linearGradient>
</defs>
</svg>
