<svg width="20" height="20" viewBox="0 0 20 20" fill="none" xmlns="http://www.w3.org/2000/svg">
<path d="M10.6836 0C11.7734 0.00290616 12.3265 0.00871848 12.8041 0.0222806L12.9921 0.0290616C13.209 0.0368113 13.4231 0.0464985 13.6818 0.0581231C14.7125 0.106559 15.4158 0.269304 16.0329 0.508578C16.6722 0.754633 17.2108 1.08787 17.7494 1.62551C18.2422 2.10961 18.6234 2.69544 18.8664 3.34208C19.1056 3.95916 19.2684 4.66245 19.3168 5.69414C19.3285 5.95182 19.3381 6.1659 19.3459 6.38387L19.3517 6.5718C19.3662 7.04841 19.372 7.60155 19.374 8.69136L19.375 9.41402V10.683C19.3773 11.3896 19.3699 12.0962 19.3527 12.8026L19.3469 12.9905C19.3391 13.2085 19.3294 13.4226 19.3178 13.6803C19.2694 14.712 19.1047 15.4143 18.8664 16.0323C18.6234 16.679 18.2422 17.2648 17.7494 17.7489C17.2653 18.2417 16.6795 18.6229 16.0329 18.8658C15.4158 19.1051 14.7125 19.2678 13.6818 19.3163L12.9921 19.3453L12.8041 19.3512C12.3265 19.3647 11.7734 19.3715 10.6836 19.3734L9.96093 19.3744H8.69288C7.98596 19.3769 7.27905 19.3695 6.57235 19.3521L6.38442 19.3463C6.15445 19.3376 5.92454 19.3276 5.69469 19.3163C4.66397 19.2678 3.96068 19.1051 3.34264 18.8658C2.69633 18.6227 2.11085 18.2416 1.62703 17.7489C1.1339 17.2649 0.752383 16.6791 0.509129 16.0323C0.269855 15.4152 0.10711 14.712 0.0586742 13.6803L0.0296126 12.9905L0.0247691 12.8026C0.00691175 12.0962 -0.00116178 11.3896 0.000551005 10.683V8.69136C-0.00213031 7.98477 0.00497439 7.27818 0.0218629 6.5718L0.0286439 6.38387C0.0363937 6.1659 0.0460809 5.95182 0.0577055 5.69414C0.106142 4.66245 0.268886 3.96013 0.50816 3.34208C0.751982 2.69517 1.13417 2.10933 1.628 1.62551C2.11154 1.13297 2.69668 0.751798 3.34264 0.508578C3.96068 0.269304 4.663 0.106559 5.69469 0.0581231C5.95237 0.0464985 6.16742 0.0368113 6.38442 0.0290616L6.57235 0.0232492C7.27873 0.00603775 7.98532 -0.00138982 8.69191 0.00096865L10.6836 0ZM9.68775 4.8436C8.40315 4.8436 7.17116 5.35391 6.26281 6.26226C5.35446 7.17061 4.84415 8.4026 4.84415 9.6872C4.84415 10.9718 5.35446 12.2038 6.26281 13.1121C7.17116 14.0205 8.40315 14.5308 9.68775 14.5308C10.9724 14.5308 12.2043 14.0205 13.1127 13.1121C14.021 12.2038 14.5314 10.9718 14.5314 9.6872C14.5314 8.4026 14.021 7.17061 13.1127 6.26226C12.2043 5.35391 10.9724 4.8436 9.68775 4.8436ZM9.68775 6.78104C10.0694 6.78098 10.4473 6.85608 10.7999 7.00207C11.1525 7.14806 11.473 7.36208 11.7429 7.63189C12.0128 7.90171 12.2269 8.22205 12.373 8.57461C12.5191 8.92718 12.5943 9.30507 12.5944 9.68672C12.5945 10.0684 12.5194 10.4463 12.3734 10.7989C12.2274 11.1515 12.0134 11.4719 11.7435 11.7418C11.4737 12.0117 11.1534 12.2259 10.8008 12.372C10.4483 12.5181 10.0704 12.5933 9.68872 12.5934C8.91796 12.5934 8.17877 12.2872 7.63376 11.7422C7.08874 11.1972 6.78256 10.458 6.78256 9.6872C6.78256 8.91644 7.08874 8.17725 7.63376 7.63223C8.17877 7.08722 8.91796 6.78104 9.68872 6.78104M14.7745 3.39052C14.4533 3.39052 14.1454 3.5181 13.9183 3.74518C13.6912 3.97227 13.5636 4.28027 13.5636 4.60142C13.5636 4.92257 13.6912 5.23057 13.9183 5.45766C14.1454 5.68474 14.4533 5.81232 14.7745 5.81232C15.0957 5.81232 15.4036 5.68474 15.6307 5.45766C15.8578 5.23057 15.9854 4.92257 15.9854 4.60142C15.9854 4.28027 15.8578 3.97227 15.6307 3.74518C15.4036 3.5181 15.0957 3.39052 14.7745 3.39052Z" fill="white" fill-opacity="0.76"/>
</svg>
