<svg width="56" height="56" viewBox="0 0 56 56" fill="none" xmlns="http://www.w3.org/2000/svg">
<path d="M29.7593 5.37842C29.7593 4.91429 29.5749 4.46917 29.2468 4.14098C28.9186 3.81279 28.4735 3.62842 28.0093 3.62842C27.5452 3.62842 27.1001 3.81279 26.7719 4.14098C26.4437 4.46917 26.2593 4.91429 26.2593 5.37842V8.83175C26.2593 9.29588 26.4437 9.741 26.7719 10.0692C27.1001 10.3974 27.5452 10.5818 28.0093 10.5818C28.4735 10.5818 28.9186 10.3974 29.2468 10.0692C29.5749 9.741 29.7593 9.29588 29.7593 8.83175V5.37842ZM41.685 24.0217C41.1987 22.131 40.3159 20.3652 39.095 18.8418C37.8846 17.3076 36.3665 16.0438 34.6383 15.1318C32.9144 14.2269 31.0256 13.6793 29.085 13.5218C27.1389 13.3755 25.1837 13.6378 23.345 14.2918C21.4961 14.9365 19.8029 15.9619 18.375 17.3018C16.9624 18.619 15.8279 20.2057 15.0383 21.9684C14.2667 23.7582 13.8773 25.6894 13.895 27.6384C13.8409 29.8895 14.3226 32.1212 15.3003 34.1496C16.2779 36.178 17.7237 37.9451 19.5183 39.3051L20.335 40.0751C21.035 40.7984 21.035 40.7984 21.0117 42.4084V43.1551C20.9836 43.6713 21.063 44.1878 21.245 44.6717C21.4083 45.1898 21.6977 45.6634 22.085 46.0484C22.2623 46.2304 22.4568 46.3937 22.6683 46.5384V48.8717C22.6299 49.2949 22.6756 49.7215 22.8029 50.1269C22.9301 50.5323 23.1363 50.9086 23.4096 51.2339C23.6829 51.5593 24.0179 51.8273 24.3952 52.0226C24.7726 52.2179 25.1849 52.3365 25.6083 52.3717H30.275C31.132 52.3004 31.9257 51.8917 32.4814 51.2353C33.0371 50.579 33.3093 49.7288 33.2383 48.8717V46.5384C33.449 46.3954 33.6444 46.2312 33.8217 46.0484C34.188 45.6611 34.468 45.1991 34.6383 44.6951C34.8171 44.2022 34.8964 43.6788 34.8717 43.1551V42.2917C34.8717 41.0084 34.8717 41.0084 35.595 40.1917L36.4817 39.3751C39.4732 37.0485 41.4267 33.6362 41.9183 29.8784C42.2619 27.9321 42.1823 25.9346 41.685 24.0217ZM29.855 48.8251H26.1683V47.3551H29.855V48.8251ZM28.0117 24.1851C27.2505 24.1851 26.5205 24.4875 25.9823 25.0257C25.444 25.5639 25.1417 26.2939 25.1417 27.0551C25.1417 27.6739 24.8958 28.2674 24.4582 28.705C24.0207 29.1426 23.4272 29.3884 22.8083 29.3884C22.1895 29.3884 21.596 29.1426 21.1584 28.705C20.7208 28.2674 20.475 27.6739 20.475 27.0551C20.4688 26.0636 20.6595 25.0808 21.0361 24.1636C21.4126 23.2464 21.9675 22.4131 22.6686 21.712C23.3697 21.011 24.203 20.456 25.1202 20.0795C26.0374 19.7029 27.0202 19.5122 28.0117 19.5184C28.6305 19.5184 29.224 19.7642 29.6616 20.2018C30.0992 20.6394 30.345 21.2329 30.345 21.8518C30.345 22.4706 30.0992 23.0641 29.6616 23.5017C29.224 23.9392 28.6305 24.1851 28.0117 24.1851ZM49.385 30.0184H45.115C44.6509 30.0184 44.2057 29.834 43.8776 29.5059C43.5494 29.1777 43.365 28.7325 43.365 28.2684C43.365 27.8043 43.5494 27.3592 43.8776 27.031C44.2057 26.7028 44.6509 26.5184 45.115 26.5184H49.385C49.8491 26.5184 50.2942 26.7028 50.6224 27.031C50.9506 27.3592 51.135 27.8043 51.135 28.2684C51.135 28.7325 50.9506 29.1777 50.6224 29.5059C50.2942 29.834 49.8491 30.0184 49.385 30.0184ZM40.7983 15.9951C40.5684 15.9962 40.3406 15.9513 40.1282 15.8632C39.9158 15.775 39.7232 15.6453 39.5617 15.4818C39.2339 15.1536 39.0499 14.7088 39.0499 14.2451C39.0499 13.7813 39.2339 13.3365 39.5617 13.0084L42.595 9.97509C42.9267 9.66597 43.3655 9.49768 43.8189 9.50568C44.2722 9.51368 44.7048 9.69734 45.0254 10.018C45.3461 10.3386 45.5297 10.7712 45.5377 11.2245C45.5457 11.6779 45.3774 12.1167 45.0683 12.4484L42.035 15.4818C41.8742 15.6464 41.6818 15.7768 41.4692 15.865C41.2567 15.9533 41.0284 15.9975 40.7983 15.9951ZM46.165 45.0217C45.7035 45.0095 45.2629 44.8266 44.9283 44.5084L41.895 41.4751C41.69 41.2719 41.5384 41.0211 41.4538 40.7451C41.3692 40.4691 41.3542 40.1765 41.4101 39.8933C41.466 39.6101 41.5911 39.3451 41.7742 39.122C41.9573 38.8989 42.1928 38.7245 42.4597 38.6144C42.7798 38.4794 43.1333 38.4442 43.4738 38.5133C43.8143 38.5824 44.1261 38.7526 44.3683 39.0018L47.4017 42.0351C47.5668 42.196 47.698 42.3883 47.7876 42.6007C47.8772 42.813 47.9233 43.0412 47.9233 43.2717C47.9233 43.5023 47.8772 43.7305 47.7876 43.9428C47.698 44.1552 47.5668 44.3475 47.4017 44.5084C47.0738 44.8367 46.629 45.0213 46.165 45.0217ZM15.2483 15.9951C14.7844 15.9947 14.3395 15.81 14.0117 15.4818L10.9783 12.4484C10.6503 12.1173 10.4673 11.6695 10.4695 11.2035C10.4717 10.7375 10.6589 10.2914 10.99 9.96342C11.3211 9.63543 11.7689 9.4524 12.2349 9.45459C12.7009 9.45678 13.147 9.64401 13.475 9.97509L16.485 13.0084C16.7294 13.2532 16.8958 13.5648 16.9632 13.9041C17.0306 14.2434 16.996 14.595 16.8637 14.9146C16.7313 15.2342 16.5073 15.5074 16.2198 15.6997C15.9323 15.892 15.5942 15.9948 15.2483 15.9951ZM9.90499 45.0217C9.67429 45.0284 9.4448 44.9861 9.23164 44.8976C9.01848 44.8091 8.82649 44.6765 8.66832 44.5084C8.34061 44.1803 8.15653 43.7355 8.15653 43.2717C8.15653 42.808 8.34061 42.3632 8.66832 42.0351L11.7017 39.0018C12.0334 38.6926 12.4722 38.5243 12.9255 38.5323C13.3789 38.5403 13.8115 38.724 14.1321 39.0446C14.4527 39.3653 14.6364 39.7978 14.6444 40.2512C14.6524 40.7046 14.4841 41.1433 14.175 41.4751L11.165 44.5317C10.821 44.8468 10.3715 45.0216 9.90499 45.0217ZM10.885 30.0184H6.61499C6.15086 30.0184 5.70574 29.834 5.37755 29.5059C5.04936 29.1777 4.86499 28.7325 4.86499 28.2684C4.86499 27.8043 5.04936 27.3592 5.37755 27.031C5.70574 26.7028 6.15086 26.5184 6.61499 26.5184H10.885C11.3491 26.5184 11.7942 26.7028 12.1224 27.031C12.4506 27.3592 12.635 27.8043 12.635 28.2684C12.635 28.7325 12.4506 29.1777 12.1224 29.5059C11.7942 29.834 11.3491 30.0184 10.885 30.0184Z" fill="white"/>
</svg>
