<svg width="24" height="24" viewBox="0 0 24 24" fill="none" xmlns="http://www.w3.org/2000/svg">
<path d="M11.8909 0C5.32364 0 0 5.32364 0 11.8909C0 18.4581 5.32364 23.7817 11.8909 23.7817C18.4581 23.7817 23.7817 18.4581 23.7817 11.8909C23.7817 5.32364 18.4581 0 11.8909 0ZM8.98008 16.8194H6.57218V9.0705H8.98008V16.8194ZM7.76127 8.11923C7.00075 8.11923 6.50901 7.58043 6.50901 6.91404C6.50901 6.23403 7.01561 5.71133 7.79223 5.71133C8.56886 5.71133 9.04449 6.23403 9.05935 6.91404C9.05935 7.58043 8.56886 8.11923 7.76127 8.11923ZM17.7744 16.8194H15.3665V12.525C15.3665 11.5255 15.0172 10.8467 14.1464 10.8467C13.4813 10.8467 13.0861 11.3062 12.9115 11.7484C12.8471 11.9057 12.831 12.1287 12.831 12.3504V16.8181H10.4218V11.5416C10.4218 10.5742 10.3909 9.76537 10.3587 9.06926H12.4507L12.561 10.1456H12.6093C12.9264 9.64027 13.703 8.89461 15.0023 8.89461C16.5865 8.89461 17.7744 9.95612 17.7744 12.2377V16.8194Z" fill="white" fill-opacity="0.76"/>
</svg>
