<svg width="26" height="26" viewBox="0 0 26 26" fill="none" xmlns="http://www.w3.org/2000/svg">
<path fill-rule="evenodd" clip-rule="evenodd" d="M0 2.78571C0 2.0469 0.293494 1.33834 0.815917 0.815917C1.33834 0.293494 2.0469 0 2.78571 0L15.7857 0C16.5245 0 17.2331 0.293494 17.7555 0.815917C18.2779 1.33834 18.5714 2.0469 18.5714 2.78571V6.38671C17.8179 6.99028 17.329 7.86354 17.2083 8.82143H10.6786C10.1298 8.82143 9.58647 8.92951 9.0795 9.1395C8.57253 9.3495 8.11189 9.65729 7.72388 10.0453C7.33586 10.4333 7.02807 10.894 6.81807 11.4009C6.60808 11.9079 6.5 12.4513 6.5 13C6.5 13.5487 6.60808 14.0921 6.81807 14.5991C7.02807 15.106 7.33586 15.5667 7.72388 15.9547C8.11189 16.3427 8.57253 16.6505 9.0795 16.8605C9.58647 17.0705 10.1298 17.1786 10.6786 17.1786H17.2083C17.329 18.1365 17.8179 19.0097 18.5714 19.6133V23.2143C18.5714 23.9531 18.2779 24.6617 17.7555 25.1841C17.2331 25.7065 16.5245 26 15.7857 26H2.78571C2.0469 26 1.33834 25.7065 0.815917 25.1841C0.293494 24.6617 0 23.9531 0 23.2143L0 2.78571ZM20.3599 7.99871C20.1053 8.10414 19.8878 8.28269 19.7347 8.51178C19.5816 8.74087 19.5 9.0102 19.5 9.28571V11.1429H10.6786C10.186 11.1429 9.71366 11.3385 9.36537 11.6868C9.01709 12.0351 8.82143 12.5075 8.82143 13C8.82143 13.4925 9.01709 13.9649 9.36537 14.3132C9.71366 14.6615 10.186 14.8571 10.6786 14.8571H19.5V16.7143C19.5002 16.9896 19.5821 17.2586 19.7351 17.4875C19.8882 17.7163 20.1056 17.8946 20.36 18C20.6144 18.1053 20.8942 18.1329 21.1643 18.0792C21.4343 18.0256 21.6824 17.8931 21.8771 17.6986L25.5914 13.9843C25.8523 13.7231 25.9988 13.3691 25.9988 13C25.9988 12.6309 25.8523 12.2769 25.5914 12.0157L21.8771 8.30143C21.6825 8.10663 21.4345 7.9739 21.1644 7.92002C20.8943 7.86614 20.6144 7.89353 20.3599 7.99871Z" fill="white"/>
</svg>
