<svg width="27" height="28" viewBox="0 0 27 28" fill="none" xmlns="http://www.w3.org/2000/svg">
<path d="M19.2967 17.6101H18.0772L17.6449 17.1778C19.2102 15.2952 20.0704 12.8917 20.0686 10.4059C20.0686 8.34785 19.4801 6.33597 18.3775 4.62472C17.2749 2.91347 15.7078 1.57971 13.8743 0.79211C12.0407 0.00450873 10.0232 -0.201564 8.07671 0.199952C6.13025 0.601468 4.34231 1.59254 2.93898 3.04783C1.53566 4.50313 0.579987 6.35729 0.192811 8.37585C-0.194365 10.3944 0.00434771 12.4867 0.76382 14.3881C1.52329 16.2896 2.80942 17.9148 4.45955 19.0582C6.10968 20.2016 8.04971 20.8119 10.0343 20.8119C12.5197 20.8119 14.8045 19.8674 16.5643 18.2985L16.9811 18.7467V20.0114L24.6998 28L27 25.6146L19.2967 17.6101ZM10.0343 17.6101C6.1904 17.6101 3.08748 14.3922 3.08748 10.4059C3.08748 6.41967 6.1904 3.20183 10.0343 3.20183C13.8782 3.20183 16.9811 6.41967 16.9811 10.4059C16.9811 14.3922 13.8782 17.6101 10.0343 17.6101Z" fill="url(#paint0_linear_205_75)"/>
<defs>
<linearGradient id="paint0_linear_205_75" x1="-4.15622" y1="13.9156" x2="31.4685" y2="13.9156" gradientUnits="userSpaceOnUse">
<stop stop-color="#CC2985"/>
<stop offset="0.5" stop-color="#DF6256"/>
<stop offset="1" stop-color="#EDB553"/>
</linearGradient>
</defs>
</svg>
