<svg width="16" height="16" viewBox="0 0 16 16" fill="none" xmlns="http://www.w3.org/2000/svg">
<path d="M9.38953 10.5C10.4504 10.5 11.4678 10.0786 12.218 9.32843C12.9681 8.57828 13.3895 7.56087 13.3895 6.5C13.3895 5.43913 12.9681 4.42172 12.218 3.67157C11.4678 2.92143 10.4504 2.5 9.38953 2.5C8.32866 2.5 7.31124 2.92143 6.5611 3.67157C5.81095 4.42172 5.38953 5.43913 5.38953 6.5C5.38953 7.56087 5.81095 8.57828 6.5611 9.32843C7.31124 10.0786 8.32866 10.5 9.38953 10.5ZM11.5245 5.607C11.166 5.814 10.651 5.5945 10.375 5.116C10.099 4.6375 10.166 4.082 10.5245 3.875C10.8835 3.668 11.398 3.8875 11.6745 4.366C11.95 4.8445 11.8835 5.4 11.5245 5.607Z" fill="white"/>
<path d="M9.38951 12C12.427 12 14.8895 9.5375 14.8895 6.5C14.8895 3.4625 12.427 1 9.38951 1C6.35201 1 3.88951 3.4625 3.88951 6.5C3.88951 7.6635 4.25051 8.7425 4.86701 9.6315C4.55981 9.56425 4.24063 9.57534 3.93884 9.66377C3.63705 9.75219 3.36234 9.9151 3.14001 10.1375L1.54901 11.7285C1.1974 12.0802 0.999892 12.5571 0.999939 13.0544C0.999986 13.5517 1.19758 14.0286 1.54926 14.3802C1.90094 14.7319 2.37789 14.9294 2.87519 14.9293C3.37249 14.9293 3.8494 14.7317 4.20101 14.38L5.79201 12.789C6.01614 12.5649 6.1798 12.2876 6.26767 11.983C6.35555 11.6785 6.36478 11.3566 6.29451 11.0475C7.20667 11.6699 8.28573 12.0019 9.39001 12M9.39001 11C8.79906 11 8.2139 10.8836 7.66793 10.6575C7.12197 10.4313 6.62589 10.0998 6.20803 9.68198C5.79017 9.26412 5.4587 8.76804 5.23255 8.22208C5.00641 7.67611 4.89001 7.09095 4.89001 6.5C4.89001 5.90905 5.00641 5.32389 5.23255 4.77792C5.4587 4.23196 5.79017 3.73588 6.20803 3.31802C6.62589 2.90016 7.12197 2.56869 7.66793 2.34254C8.2139 2.1164 8.79906 2 9.39001 2C10.5835 2 11.7281 2.47411 12.572 3.31802C13.4159 4.16193 13.89 5.30653 13.89 6.5C13.89 7.69347 13.4159 8.83807 12.572 9.68198C11.7281 10.5259 10.5835 11 9.39001 11Z" fill="white"/>
</svg>
