<svg width="21" height="21" viewBox="0 0 21 21" fill="none" xmlns="http://www.w3.org/2000/svg">
<path d="M18.375 2.29687C18.375 2.15201 18.3431 2.00893 18.2815 1.87783C18.2198 1.74673 18.13 1.63085 18.0185 1.53846C17.9069 1.44607 17.7763 1.37944 17.636 1.34333C17.4957 1.30722 17.3492 1.30252 17.2069 1.32956L7.36051 3.20643C7.13553 3.24918 6.93249 3.36903 6.78635 3.54535C6.64022 3.72167 6.56013 3.94343 6.55988 4.17243V7.45368L6.56251 7.52456V12.7706C6.5627 13.0763 6.45621 13.3724 6.26141 13.608C6.06661 13.8435 5.79571 14.0037 5.49544 14.0608L4.73419 14.2052C4.05784 14.3342 3.46043 14.7265 3.07337 15.296C2.68631 15.8654 2.54132 16.5653 2.67029 17.2417C2.79926 17.918 3.19163 18.5154 3.76107 18.9025C4.33052 19.2895 5.03041 19.4345 5.70676 19.3056L6.49819 19.1546C7.67944 18.9302 8.53257 17.8986 8.53257 16.6963V14.6711L8.53126 14.6147V8.26875L16.4063 6.76856V10.8977C16.4061 11.2031 16.2995 11.4989 16.1047 11.7342C15.91 11.9695 15.6392 12.1294 15.3392 12.1866L14.5727 12.3322C13.8962 12.461 13.2985 12.8533 12.9112 13.4228C12.5239 13.9922 12.3787 14.6922 12.5075 15.3687C12.6363 16.0452 13.0285 16.6429 13.598 17.0302C14.1674 17.4175 14.8674 17.5627 15.5439 17.4339L15.9718 17.3512C16.6481 17.2231 17.2584 16.8627 17.6972 16.3323C18.136 15.802 18.3757 15.135 18.375 14.4467V2.29687Z" fill="white"/>
</svg>
