<svg width="22" height="22" viewBox="0 0 22 22" fill="none" xmlns="http://www.w3.org/2000/svg">
<path d="M21.4408 2.45667C21.2602 2.32299 21.0493 2.23625 20.8269 2.20425C20.6045 2.17225 20.3776 2.19599 20.1667 2.27333C15.9592 3.73083 14.3092 3.19 11.0917 2.27333C8.25 1.49417 6.30667 0.7975 1.83333 1.96167V0.916667C1.83333 0.673552 1.73676 0.440394 1.56485 0.268485C1.39294 0.0965771 1.15978 0 0.916667 0C0.673552 0 0.440394 0.0965771 0.268485 0.268485C0.0965771 0.440394 0 0.673552 0 0.916667L0 21.0833C0 21.3264 0.0965771 21.5596 0.268485 21.7315C0.440394 21.9034 0.673552 22 0.916667 22C1.15978 22 1.39294 21.9034 1.56485 21.7315C1.73676 21.5596 1.83333 21.3264 1.83333 21.0833V18.535C6.2425 17.3433 8.09417 18.0125 10.8808 18.7733C14.6667 19.8092 16.5 20.295 21.0833 18.535C21.3486 18.4398 21.5785 18.266 21.7423 18.0367C21.9061 17.8073 21.996 17.5335 22 17.2517V3.575C22.0004 3.35792 21.95 3.14375 21.8529 2.94959C21.7558 2.75543 21.6147 2.58663 21.4408 2.45667ZM11.9167 14.7583C11.8629 14.8132 11.7987 14.8568 11.7279 14.8866C11.6571 14.9163 11.581 14.9317 11.5042 14.9317C11.4273 14.9317 11.3513 14.9163 11.2804 14.8866C11.2096 14.8568 11.1454 14.8132 11.0917 14.7583L7.41583 11C7.18476 10.7799 7.00005 10.5159 6.87257 10.2233C6.74508 9.93082 6.6774 9.61574 6.67351 9.29667C6.66962 8.9776 6.7296 8.66097 6.84991 8.36542C6.97022 8.06988 7.14845 7.80138 7.37408 7.57575C7.59972 7.35011 7.86821 7.17189 8.16376 7.05158C8.4593 6.93126 8.77593 6.87129 9.095 6.87518C9.41408 6.87907 9.72915 6.94675 10.0217 7.07423C10.3142 7.20172 10.5783 7.38643 10.7983 7.6175L11.2933 8.1125C11.3147 8.13468 11.3403 8.15232 11.3687 8.16437C11.397 8.17642 11.4275 8.18263 11.4583 8.18263C11.4891 8.18263 11.5196 8.17642 11.548 8.16437C11.5763 8.15232 11.602 8.13468 11.6233 8.1125L12.1183 7.6175C12.3384 7.38643 12.6025 7.20172 12.895 7.07423C13.1875 6.94675 13.5026 6.87907 13.8217 6.87518C14.1407 6.87129 14.4574 6.93126 14.7529 7.05158C15.0485 7.17189 15.317 7.35011 15.5426 7.57575C15.7682 7.80138 15.9464 8.06988 16.0668 8.36542C16.1871 8.66097 16.247 8.9776 16.2432 9.29667C16.2393 9.61574 16.1716 9.93082 16.0441 10.2233C15.9166 10.5159 15.7319 10.7799 15.5008 11L11.9167 14.7583Z" fill="white"/>
</svg>
