<svg width="24" height="29" viewBox="0 0 24 29" fill="none" xmlns="http://www.w3.org/2000/svg">
<path fill-rule="evenodd" clip-rule="evenodd" d="M11.625 2.29695e-08C11.2547 -4.93509e-05 10.8888 0.0795003 10.5519 0.233258C10.2151 0.387016 9.91523 0.611388 9.67268 0.891169C9.43014 1.17095 9.25058 1.4996 9.14616 1.85485C9.04175 2.2101 9.01492 2.58364 9.0675 2.95017C7.19507 3.50235 5.55163 4.64571 4.38288 6.20933C3.21412 7.77295 2.58281 9.67284 2.58333 11.625V21.9583H1.29167C0.949095 21.9583 0.620555 22.0944 0.37832 22.3367C0.136086 22.5789 0 22.9074 0 23.25C0 23.5926 0.136086 23.9211 0.37832 24.1633C0.620555 24.4056 0.949095 24.5417 1.29167 24.5417H21.9583C22.3009 24.5417 22.6294 24.4056 22.8717 24.1633C23.1139 23.9211 23.25 23.5926 23.25 23.25C23.25 22.9074 23.1139 22.5789 22.8717 22.3367C22.6294 22.0944 22.3009 21.9583 21.9583 21.9583H20.6667V11.625C20.6672 9.67284 20.0359 7.77295 18.8671 6.20933C17.6984 4.64571 16.0549 3.50235 14.1825 2.95017C14.1997 2.82961 14.2083 2.70733 14.2083 2.58333C14.2083 1.89819 13.9362 1.24111 13.4517 0.756641C12.9672 0.272172 12.3101 2.29695e-08 11.625 2.29695e-08ZM14.2083 27.125C14.2083 27.4676 14.0722 27.7961 13.83 28.0383C13.5878 28.2806 13.2592 28.4167 12.9167 28.4167H10.3333C9.99076 28.4167 9.66222 28.2806 9.41999 28.0383C9.17775 27.7961 9.04167 27.4676 9.04167 27.125C9.04167 26.7824 9.17775 26.4539 9.41999 26.2117C9.66222 25.9694 9.99076 25.8333 10.3333 25.8333H12.9167C13.2592 25.8333 13.5878 25.9694 13.83 26.2117C14.0722 26.4539 14.2083 26.7824 14.2083 27.125Z" fill="url(#paint0_linear_293_368)"/>
<defs>
<linearGradient id="paint0_linear_293_368" x1="0.125" y1="13.7084" x2="23.125" y2="13.7084" gradientUnits="userSpaceOnUse">
<stop stop-color="#CC2985"/>
<stop offset="0.5" stop-color="#DD6F6C"/>
<stop offset="1" stop-color="#EDB553"/>
</linearGradient>
</defs>
</svg>
