<svg width="16" height="14" viewBox="0 0 16 14" fill="none" xmlns="http://www.w3.org/2000/svg">
<path fill-rule="evenodd" clip-rule="evenodd" d="M6.28066 0.97125C7.05566 -0.32375 8.93466 -0.32375 9.71066 0.97125L15.7037 10.9683C16.5027 12.3013 15.5427 13.9963 13.9877 13.9963H2.00366C0.448656 13.9963 -0.511344 12.3013 0.287656 10.9683L6.28066 0.97125ZM7.99566 3.99625C8.19457 3.99625 8.38533 4.07527 8.52599 4.21592C8.66664 4.35657 8.74566 4.54734 8.74566 4.74625V7.74625C8.74566 7.94516 8.66664 8.13593 8.52599 8.27658C8.38533 8.41723 8.19457 8.49625 7.99566 8.49625C7.79674 8.49625 7.60598 8.41723 7.46533 8.27658C7.32467 8.13593 7.24566 7.94516 7.24566 7.74625V4.74625C7.24566 4.54734 7.32467 4.35657 7.46533 4.21592C7.60598 4.07527 7.79674 3.99625 7.99566 3.99625ZM8.99566 10.4963C8.99566 10.7615 8.8903 11.0158 8.70276 11.2034C8.51523 11.3909 8.26087 11.4963 7.99566 11.4963C7.73044 11.4963 7.47609 11.3909 7.28855 11.2034C7.10101 11.0158 6.99566 10.7615 6.99566 10.4963C6.99566 10.231 7.10101 9.97668 7.28855 9.78914C7.47609 9.60161 7.73044 9.49625 7.99566 9.49625C8.26087 9.49625 8.51523 9.60161 8.70276 9.78914C8.8903 9.97668 8.99566 10.231 8.99566 10.4963Z" fill="white"/>
</svg>
