<svg width="26" height="26" viewBox="0 0 26 26" fill="none" xmlns="http://www.w3.org/2000/svg">
<path d="M1.89581 14.1374C1.67915 13.9208 1.57515 13.668 1.58381 13.3791C1.59248 13.0902 1.70551 12.8374 1.9229 12.6208C2.13956 12.4222 2.39234 12.3182 2.68123 12.3088C2.97012 12.2994 3.2229 12.4034 3.43956 12.6208L7.2854 16.4666L7.66456 16.8458L8.04373 17.2249C8.2604 17.4416 8.3644 17.6944 8.35573 17.9833C8.34706 18.2722 8.23404 18.5249 8.01665 18.7416C7.79998 18.9402 7.5472 19.0442 7.25831 19.0536C6.96942 19.063 6.71665 18.959 6.49998 18.7416L1.89581 14.1374ZM13.3791 16.4395L22.5875 7.23118C22.8041 7.01451 23.0569 6.91087 23.3458 6.92026C23.6347 6.92965 23.8875 7.04232 24.1041 7.25826C24.3028 7.47493 24.4068 7.72771 24.4161 8.0166C24.4255 8.30549 24.3215 8.55826 24.1041 8.77493L14.1375 18.7416C13.9208 18.9583 13.668 19.0666 13.3791 19.0666C13.0903 19.0666 12.8375 18.9583 12.6208 18.7416L8.01665 14.1374C7.81804 13.9388 7.71873 13.6907 7.71873 13.3932C7.71873 13.0956 7.81804 12.8382 8.01665 12.6208C8.23331 12.4041 8.49079 12.2958 8.78906 12.2958C9.08734 12.2958 9.34445 12.4041 9.5604 12.6208L13.3791 16.4395ZM17.9562 8.80201L14.1375 12.6208C13.9389 12.8194 13.6908 12.9187 13.3932 12.9187C13.0957 12.9187 12.8382 12.8194 12.6208 12.6208C12.4041 12.4041 12.2958 12.147 12.2958 11.8494C12.2958 11.5519 12.4041 11.2944 12.6208 11.077L16.4396 7.25826C16.6382 7.05965 16.8866 6.96035 17.1849 6.96035C17.4832 6.96035 17.7403 7.05965 17.9562 7.25826C18.1729 7.47493 18.2812 7.73204 18.2812 8.0296C18.2812 8.32715 18.1729 8.58462 17.9562 8.80201Z" fill="white"/>
</svg>
