<svg width="23" height="23" viewBox="0 0 23 23" fill="none" xmlns="http://www.w3.org/2000/svg">
<path d="M11.3541 0C17.6313 0 22.7083 5.07692 22.7083 11.3541C22.7083 17.6313 17.6313 22.7083 11.3541 22.7083C5.07692 22.7083 0 17.6313 0 11.3541C0 5.07692 5.07692 0 11.3541 0ZM9.27794 17.3394C14.3062 17.3394 17.0636 13.1708 17.0636 9.55369V9.19684C17.5989 8.80756 18.0693 8.32095 18.4261 7.76947C17.9395 7.98033 17.4043 8.12631 16.8528 8.20741C17.4205 7.86679 17.8584 7.33152 18.0531 6.69893C17.5178 7.00712 16.9339 7.2342 16.3175 7.36396C15.8147 6.8287 15.101 6.50429 14.3224 6.50429C12.8139 6.50429 11.5812 7.73702 11.5812 9.2455C11.5812 9.45636 11.5974 9.66723 11.6623 9.86187C9.39148 9.74833 7.36396 8.66158 6.01769 7.00712C5.7906 7.41262 5.64462 7.88301 5.64462 8.38583C5.64462 9.3266 6.13123 10.1701 6.86114 10.6567C6.40697 10.6567 5.98525 10.5269 5.6284 10.316V10.3485C5.6284 11.6785 6.56917 12.7815 7.81813 13.041C7.59104 13.1059 7.34774 13.1383 7.10444 13.1383C6.92602 13.1383 6.76381 13.1221 6.58539 13.0897C6.92602 14.1764 7.94789 14.9712 9.13196 14.9874C8.19119 15.7174 7.00712 16.1553 5.72572 16.1553C5.49864 16.1553 5.28778 16.1553 5.07692 16.1229C6.27721 16.9014 7.72081 17.3556 9.26172 17.3556" fill="white" fill-opacity="0.76"/>
</svg>
