<svg width="25" height="20" viewBox="0 0 25 20" fill="none" xmlns="http://www.w3.org/2000/svg">
<path d="M7.11719 2.97266L5.10938 12.0117C5.68359 12.6914 6.53906 13.125 7.5 13.125H17.5C18.4609 13.125 19.3164 12.6914 19.8906 12.0117L17.8828 2.97266C17.6602 1.96484 16.7656 1.25 15.7344 1.25C15.2578 1.25 14.793 1.40625 14.4141 1.69141L14.2305 1.82812C13.2031 2.59766 11.793 2.59766 10.7695 1.82812L10.5859 1.69141C10.2031 1.40625 9.74219 1.25 9.26562 1.25C8.23438 1.25 7.33984 1.96484 7.11719 2.97266ZM2.5 10C2.5 9.30859 1.94141 8.75 1.25 8.75C0.558594 8.75 0 9.30859 0 10C0 14.1406 3.35938 17.5 7.5 17.5H17.5C21.6406 17.5 25 14.1406 25 10C25 9.30859 24.4414 8.75 23.75 8.75C23.0586 8.75 22.5 9.30859 22.5 10C22.5 12.7617 20.2617 15 17.5 15H7.5C4.73828 15 2.5 12.7617 2.5 10Z" fill="white"/>
</svg>
